<svg width="300" height="88" viewBox="0 0 300 88" fill="none" xmlns="http://www.w3.org/2000/svg">
<g clip-path="url(#clip0_2416_82)">
<path d="M0 14.8551C0 6.85093 6.48863 0.362305 14.4928 0.362305H285.507C293.511 0.362305 300 6.85093 300 14.8551V35.1449C300 63.9598 276.641 87.3188 247.826 87.3188H14.4928C6.48864 87.3188 0 80.8302 0 72.8261V14.8551Z" fill="white"/>
<path fill-rule="evenodd" clip-rule="evenodd" d="M7.14626 89.7637C32.7043 96.0268 58.5004 80.3851 64.7634 54.827C71.0265 29.269 55.3848 3.4729 29.8267 -2.79013C4.26869 -9.05317 -21.5274 6.58852 -27.7904 32.1466C-34.0535 57.7046 -18.4118 83.5007 7.14626 89.7637ZM28.4482 25.0972C35.0147 27.3029 39.8252 30.6081 38.9569 36.7607C38.3275 41.2713 35.8099 43.435 32.447 44.2087C37.1177 46.5756 39.5182 50.204 37.3434 56.5001C34.6333 64.3115 28.0079 64.9749 19.1631 63.3271L17.1233 71.7344L11.931 70.4679L13.9537 62.1689C12.6049 61.8432 11.2374 61.4994 9.81424 61.1196L7.79202 69.4548L2.59981 68.1883L4.63941 59.7629C4.31248 59.6792 3.98281 59.5942 3.65077 59.5085C2.76282 59.2795 1.85795 59.0461 0.943432 58.8222L-5.81933 57.1758L-3.32539 51.3852C-3.32539 51.3852 0.500195 52.3801 0.444081 52.3079C1.9221 52.6517 2.55631 51.7318 2.80694 51.1004L6.04317 37.8219C6.17045 37.8446 6.29057 37.8744 6.40344 37.9024C6.47068 37.919 6.53533 37.9351 6.5974 37.9486C6.39388 37.8763 6.20899 37.822 6.06117 37.7858L8.36481 28.296C8.40752 27.2134 8.00489 25.8598 5.91695 25.3532C5.99003 25.2991 2.14748 24.4305 2.14748 24.4305L3.4666 19.0181L10.6176 20.773L10.6178 20.7911C11.6894 21.0444 12.7978 21.2977 13.9247 21.5511L15.9471 13.2339L21.1394 14.5004L19.1519 22.6552C20.5374 22.9628 21.9415 23.2885 23.3087 23.6142L25.2784 15.5136L30.4706 16.7801L28.4482 25.0972ZM12.4509 55.2831C16.6894 56.3778 25.9148 58.7604 27.3162 52.993C28.7582 47.076 19.7457 45.1073 15.3793 44.1535C14.8996 44.0488 14.4759 43.9562 14.1284 43.872L11.4202 55.0217C11.7152 55.0931 12.0621 55.1827 12.4509 55.2831ZM16.2448 38.9907C19.7974 39.9092 27.4601 41.8905 28.7297 36.6638C30.022 31.3106 22.5923 29.6927 18.923 28.8937C18.4991 28.8014 18.1253 28.72 17.821 28.645L15.3589 38.7663C15.6119 38.827 15.9101 38.9042 16.2448 38.9907Z" fill="url(#paint0_linear_2416_82)" fill-opacity="0.5"/>
<path d="M48.5207 52.3623C47.8602 52.3623 47.53 52.0085 47.53 51.3008V33.1283C47.53 32.4206 47.8602 32.0668 48.5207 32.0668H53.4601C57.8004 32.0668 60.7348 32.9443 62.2633 34.6993C63.8013 36.4542 64.5703 38.9499 64.5703 42.1862C64.5703 45.4226 63.8013 47.9277 62.2633 49.7015C60.7348 51.4754 57.8004 52.3623 53.4601 52.3623H48.5207ZM51.6627 48.8523H53.1912C56.1162 48.8523 58.008 48.3098 58.8666 47.2247C59.7252 46.1302 60.1545 44.4507 60.1545 42.1862C60.1545 39.9217 59.7252 38.2517 58.8666 37.176C58.008 36.091 56.1162 35.5484 53.1912 35.5484H51.6627V48.8523ZM66.9197 48.3994C66.9197 46.5124 67.8208 45.1442 69.6229 44.295C71.4251 43.4459 73.482 42.993 75.7937 42.9364V42.3702C75.7937 41.5022 75.5766 40.8889 75.1426 40.5303C74.7086 40.1718 74.1047 39.9925 73.331 39.9925C72.7838 39.9925 72.2978 40.0727 71.8733 40.2331C71.4581 40.3841 71.0948 40.5634 70.7835 40.7709C70.4815 40.9691 70.2079 41.1719 69.9626 41.3795C69.5286 41.7569 69.17 41.7758 68.887 41.4361L67.7123 39.9925C67.4198 39.634 67.4905 39.266 67.9245 38.8886C68.2548 38.5961 68.6369 38.3413 69.0709 38.1243C69.5144 37.9073 70.0994 37.7044 70.8259 37.5157C71.5525 37.3176 72.496 37.2185 73.6565 37.2185C75.6191 37.2185 77.124 37.6714 78.1714 38.5772C79.2281 39.483 79.7565 40.8181 79.7565 42.5825V51.5131C79.7565 52.0792 79.4735 52.3623 78.9073 52.3623H76.5862C76.0767 52.3623 75.822 52.0792 75.822 51.5131V51.0885H75.7937C75.237 51.6263 74.5671 52.0226 73.7839 52.2774C73.0102 52.5227 72.2978 52.6454 71.6468 52.6454C70.0994 52.6454 68.9247 52.268 68.1227 51.5131C67.3207 50.7489 66.9197 49.711 66.9197 48.3994ZM71.109 48.3145C71.109 48.6448 71.175 48.9325 71.3071 49.1779C71.4392 49.4137 71.6468 49.5883 71.9299 49.7015C72.2129 49.8148 72.529 49.8714 72.8781 49.8714C73.3593 49.8714 73.8264 49.8053 74.2793 49.6732C74.7322 49.5411 75.237 49.2298 75.7937 48.7391V45.6679C74.2085 45.8472 73.147 46.0783 72.6092 46.3614C72.0714 46.6445 71.6845 46.937 71.4487 47.2389C71.2222 47.5408 71.109 47.8994 71.109 48.3145ZM84.4695 52.3623C83.9034 52.3623 83.6203 52.0792 83.6203 51.5131V38.3508C83.6203 37.7846 83.9034 37.5016 84.4695 37.5016H86.7057C87.2718 37.5016 87.5549 37.7846 87.5549 38.3508V39.5113H87.6115C87.8568 38.9074 88.2672 38.3743 88.8428 37.912C89.4184 37.4497 90.0977 37.2185 90.8808 37.2185C91.4187 37.2185 91.8621 37.2846 92.2112 37.4167C92.5415 37.5393 92.6689 37.7658 92.5934 38.096L92.1971 39.7802C92.1122 40.1576 91.8574 40.2709 91.4328 40.1199C91.1875 40.035 90.9516 39.9925 90.7252 39.9925C89.8194 39.9925 89.0693 40.535 88.4748 41.6201C87.8804 42.7052 87.5832 44.2856 87.5832 46.3614V51.5131C87.5832 52.0792 87.3001 52.3623 86.734 52.3623H84.4695ZM94.7163 46.1916V38.3508C94.7163 37.7846 94.9994 37.5016 95.5655 37.5016H97.83C98.3961 37.5016 98.6792 37.7846 98.6792 38.3508V45.1725C98.6792 47.2295 98.8207 48.5268 99.1038 49.0646C99.3868 49.6025 99.9813 49.8714 100.887 49.8714C101.849 49.8714 102.581 49.4892 103.081 48.725C103.581 47.9513 103.831 46.352 103.831 43.9271V38.3508C103.831 37.7846 104.114 37.5016 104.68 37.5016H106.945C107.511 37.5016 107.794 37.7846 107.794 38.3508V51.5131C107.794 52.0792 107.511 52.3623 106.945 52.3623H104.708C104.142 52.3623 103.859 52.0792 103.859 51.5131V50.6922H103.803C103.369 51.4376 102.817 51.9519 102.147 52.2349C101.477 52.5086 100.684 52.6454 99.769 52.6454C98.3254 52.6454 97.1224 52.183 96.1599 51.2584C95.1975 50.3337 94.7163 48.6448 94.7163 46.1916ZM108.7 58.1509C108.341 58.0849 108.204 57.8395 108.289 57.415L108.6 55.8581C108.685 55.4241 108.926 55.2826 109.322 55.4335C109.492 55.4996 109.832 55.5326 110.341 55.5326C110.936 55.5326 111.346 55.2212 111.573 54.5985C111.799 53.9758 111.912 53.1077 111.912 51.9943V38.3508C111.912 37.7846 112.195 37.5016 112.762 37.5016H115.026C115.592 37.5016 115.875 37.7846 115.875 38.3508V52.4189C115.875 54.7589 115.418 56.3252 114.502 57.1177C113.587 57.9103 112.365 58.3066 110.837 58.3066C109.987 58.3066 109.275 58.2547 108.7 58.1509ZM112.762 35.322C112.195 35.322 111.912 35.0389 111.912 34.4728V32.6612C111.912 32.0951 112.195 31.812 112.762 31.812H115.026C115.592 31.812 115.875 32.0951 115.875 32.6612V34.4728C115.875 35.0389 115.592 35.322 115.026 35.322H112.762ZM119.102 40.3322C118.545 40.3322 118.267 40.0963 118.267 39.6245V38.2092C118.267 37.7375 118.545 37.5016 119.102 37.5016H120.064V37.0062C120.064 36.5816 120.164 36.1948 120.362 35.8457L121.451 33.935C121.659 33.5764 121.904 33.3972 122.187 33.3972H123.178C123.744 33.3972 124.027 33.6802 124.027 34.2464V37.5016H126.32C126.877 37.5016 127.155 37.7375 127.155 38.2092V39.6245C127.155 40.0963 126.877 40.3322 126.32 40.3322H124.027V47.3521C124.027 48.3145 124.093 49.008 124.225 49.4326C124.367 49.8478 124.726 50.0554 125.301 50.0554C125.594 50.0554 125.924 50.0082 126.292 49.9138C126.66 49.81 126.948 49.711 127.155 49.6166C127.485 49.4656 127.702 49.5741 127.806 49.9421L128.231 51.5556C128.316 51.8764 128.193 52.1123 127.863 52.2632C127.551 52.4048 127.122 52.5321 126.575 52.6454C126.037 52.768 125.495 52.8294 124.947 52.8294C123.598 52.8294 122.447 52.551 121.494 51.9943C120.541 51.4376 120.064 50.2912 120.064 48.5551V40.3322H119.102ZM130.099 44.9319C130.099 42.5448 130.693 40.6624 131.882 39.2849C133.081 37.9073 134.77 37.2185 136.949 37.2185C139.478 37.2185 141.355 37.8696 142.582 39.1716C143.809 40.4737 144.422 42.5684 144.422 45.4556C144.422 46.0217 144.158 46.3048 143.629 46.3048H134.288C134.439 47.8711 134.826 48.8571 135.449 49.2628C136.072 49.6685 136.793 49.8714 137.614 49.8714C138.397 49.8714 138.997 49.7676 139.412 49.56C139.827 49.3524 140.176 49.0694 140.459 48.7108C140.78 48.2957 141.176 48.2296 141.648 48.5127L143.063 49.376C143.62 49.7157 143.7 50.1214 143.304 50.5932C142.728 51.282 142.054 51.7962 141.28 52.1359C140.506 52.4755 139.284 52.6454 137.614 52.6454C134.906 52.6454 132.977 51.9566 131.826 50.579C130.675 49.2015 130.099 47.3191 130.099 44.9319ZM134.302 43.4742H140.459C140.459 42.4551 140.204 41.6248 139.695 40.9832C139.185 40.3322 138.374 40.0067 137.26 40.0067C136.374 40.0067 135.671 40.318 135.152 40.9408C134.633 41.5541 134.35 42.3985 134.302 43.4742ZM158.745 52.3623C158.084 52.3623 157.754 52.0085 157.754 51.3008V33.1283C157.754 32.4206 158.084 32.0668 158.745 32.0668H160.896C161.557 32.0668 161.887 32.4206 161.887 33.1283V38.7612C161.887 39.3273 161.863 39.8934 161.816 40.4596H161.915L168.794 32.9018C169.303 32.3451 169.737 32.0668 170.096 32.0668H172.94C174.044 32.0668 174.224 32.4725 173.478 33.284L167.039 40.3322L173.931 51.1451C174.45 51.9566 174.271 52.3623 173.393 52.3623H170.747C170.256 52.3623 169.831 52.084 169.473 51.5273L164.265 43.3609L161.887 46.0359V51.3008C161.887 52.0085 161.557 52.3623 160.896 52.3623H158.745ZM177.54 52.3623C176.974 52.3623 176.691 52.0792 176.691 51.5131V38.3508C176.691 37.7846 176.974 37.5016 177.54 37.5016H179.776C180.342 37.5016 180.626 37.7846 180.626 38.3508V39.5113H180.682C180.927 38.9074 181.338 38.3743 181.913 37.912C182.489 37.4497 183.168 37.2185 183.951 37.2185C184.489 37.2185 184.933 37.2846 185.282 37.4167C185.612 37.5393 185.739 37.7658 185.664 38.096L185.268 39.7802C185.183 40.1576 184.928 40.2709 184.503 40.1199C184.258 40.035 184.022 39.9925 183.796 39.9925C182.89 39.9925 182.14 40.535 181.545 41.6201C180.951 42.7052 180.654 44.2856 180.654 46.3614V51.5131C180.654 52.0792 180.371 52.3623 179.805 52.3623H177.54ZM186.895 38.6055C186.641 37.8696 186.796 37.5016 187.362 37.5016H189.896C190.33 37.5016 190.613 37.7422 190.745 38.2234L192.882 46.1349C192.986 46.5029 193.076 46.9794 193.151 47.5644C193.236 48.14 193.278 48.5079 193.278 48.6684H193.363C193.477 48.1683 193.557 47.772 193.604 47.4795C193.661 47.1776 193.807 46.5973 194.043 45.7387L196.067 38.2234C196.199 37.7422 196.482 37.5016 196.916 37.5016H199.449C200.006 37.5016 200.161 37.8696 199.916 38.6055L195.147 52.9567C194.59 54.6362 193.906 55.9478 193.094 56.8913C192.283 57.8348 191.155 58.3066 189.712 58.3066C188.919 58.3066 188.212 58.2406 187.589 58.1085C187.23 58.033 187.093 57.7877 187.178 57.3725L187.49 55.8157C187.575 55.4099 187.815 55.2684 188.212 55.3911C188.504 55.4854 188.778 55.5326 189.032 55.5326C189.797 55.5326 190.377 55.1693 190.773 54.4428C191.179 53.7163 191.448 53.0935 191.58 52.5746L191.622 52.3623L186.895 38.6055ZM202.676 58.0235C202.11 58.0235 201.827 57.7405 201.827 57.1744V38.3508C201.827 37.7846 202.11 37.5016 202.676 37.5016H204.912C205.384 37.5016 205.639 37.7846 205.676 38.3508L205.733 39.1716H205.79C206.28 38.3602 206.828 37.8318 207.431 37.5865C208.035 37.3412 208.762 37.2185 209.611 37.2185C211.828 37.2185 213.385 37.9875 214.282 39.5255C215.187 41.054 215.64 42.8562 215.64 44.9319C215.64 47.0077 215.187 48.8146 214.282 50.3526C213.385 51.8811 211.828 52.6454 209.611 52.6454C208.762 52.6454 208.035 52.5227 207.431 52.2774C206.828 52.0321 206.28 51.5037 205.79 50.6922H205.733C205.771 51.0697 205.79 51.4471 205.79 51.8245V57.1744C205.79 57.7405 205.507 58.0235 204.941 58.0235H202.676ZM205.79 45.5688C205.79 46.8426 206.04 47.8805 206.54 48.6825C207.049 49.4751 207.658 49.8714 208.366 49.8714C209.639 49.8714 210.47 49.4279 210.856 48.541C211.253 47.6446 211.451 46.4416 211.451 44.9319C211.451 43.4223 211.253 42.224 210.856 41.3371C210.47 40.4407 209.639 39.9925 208.366 39.9925C207.658 39.9925 207.049 40.3935 206.54 41.1955C206.04 41.9881 205.79 43.0213 205.79 44.295V45.5688ZM218.202 40.3322C217.645 40.3322 217.367 40.0963 217.367 39.6245V38.2092C217.367 37.7375 217.645 37.5016 218.202 37.5016H219.164V37.0062C219.164 36.5816 219.263 36.1948 219.462 35.8457L220.551 33.935C220.759 33.5764 221.004 33.3972 221.287 33.3972H222.278C222.844 33.3972 223.127 33.6802 223.127 34.2464V37.5016H225.42C225.977 37.5016 226.255 37.7375 226.255 38.2092V39.6245C226.255 40.0963 225.977 40.3322 225.42 40.3322H223.127V47.3521C223.127 48.3145 223.193 49.008 223.325 49.4326C223.467 49.8478 223.825 50.0554 224.401 50.0554C224.693 50.0554 225.024 50.0082 225.392 49.9138C225.76 49.81 226.047 49.711 226.255 49.6166C226.585 49.4656 226.802 49.5741 226.906 49.9421L227.331 51.5556C227.416 51.8764 227.293 52.1123 226.963 52.2632C226.651 52.4048 226.222 52.5321 225.675 52.6454C225.137 52.768 224.594 52.8294 224.047 52.8294C222.698 52.8294 221.547 52.551 220.594 51.9943C219.641 51.4376 219.164 50.2912 219.164 48.5551V40.3322H218.202ZM229.199 44.9319C229.199 42.5259 229.817 40.6388 231.053 39.2707C232.298 37.9026 234.148 37.2185 236.601 37.2185C239.054 37.2185 240.899 37.9026 242.135 39.2707C243.38 40.6388 244.003 42.5259 244.003 44.9319C244.003 47.338 243.38 49.225 242.135 50.5932C240.899 51.9613 239.054 52.6454 236.601 52.6454C234.148 52.6454 232.298 51.9613 231.053 50.5932C229.817 49.225 229.199 47.338 229.199 44.9319ZM233.388 44.9319C233.388 46.7247 233.662 47.9984 234.209 48.7533C234.766 49.4987 235.563 49.8714 236.601 49.8714C237.639 49.8714 238.431 49.4987 238.979 48.7533C239.535 47.9984 239.814 46.7247 239.814 44.9319C239.814 43.1392 239.535 41.8702 238.979 41.1248C238.431 40.3699 237.639 39.9925 236.601 39.9925C235.563 39.9925 234.766 40.3699 234.209 41.1248C233.662 41.8702 233.388 43.1392 233.388 44.9319ZM247.768 33.1283C247.749 32.4206 248.079 32.0668 248.758 32.0668H251.023C251.702 32.0668 252.033 32.4206 252.014 33.1283L251.632 45.4981C251.613 46.1114 251.306 46.418 250.712 46.418H249.07C248.475 46.418 248.169 46.1114 248.15 45.4981L247.768 33.1283ZM248.815 52.3623C248.155 52.3623 247.824 52.0085 247.824 51.3008V49.4043C247.824 48.6967 248.155 48.3428 248.815 48.3428H250.966C251.627 48.3428 251.957 48.6967 251.957 49.4043V51.3008C251.957 52.0085 251.627 52.3623 250.966 52.3623H248.815Z" fill="#013260"/>
<path d="M290.373 47.433C284.658 48.6717 277.578 50.2201 270.745 57.0949C265.093 62.7929 263.23 69.6057 261.553 75.6134C260.373 79.9488 259.193 84.2843 256.522 87.3191C278.634 83.2314 295.963 65.9516 300 43.8408C297.391 45.8847 293.851 46.6898 290.373 47.433Z" fill="#013260"/>
</g>
<defs>
<linearGradient id="paint0_linear_2416_82" x1="-8.69572" y1="3.98557" x2="47.1014" y2="71.3769" gradientUnits="userSpaceOnUse">
<stop stop-color="#013260"/>
<stop offset="0.915" stop-color="#013260" stop-opacity="0.05"/>
</linearGradient>
<clipPath id="clip0_2416_82">
<path d="M0 14.8551C0 6.85093 6.48863 0.362305 14.4928 0.362305H285.507C293.511 0.362305 300 6.85093 300 14.8551V35.1449C300 63.9598 276.641 87.3188 247.826 87.3188H14.4928C6.48864 87.3188 0 80.8302 0 72.8261V14.8551Z" fill="white"/>
</clipPath>
</defs>
</svg>
