<svg width="300" height="88" viewBox="0 0 300 88" fill="none" xmlns="http://www.w3.org/2000/svg">
<g clip-path="url(#clip0_2416_76)">
<path d="M0 14.6959C0 6.69175 6.48863 0.203125 14.4928 0.203125H285.507C293.511 0.203125 300 6.69175 300 14.6959V34.9857C300 63.8006 276.641 87.1596 247.826 87.1596H14.4928C6.48864 87.1596 0 80.671 0 72.6669V14.6959Z" fill="#28CC8A"/>
<path fill-rule="evenodd" clip-rule="evenodd" d="M7.14626 89.6041C32.7043 95.8671 58.5004 80.2254 64.7634 54.6674C71.0265 29.1093 55.3848 3.31324 29.8267 -2.9498C4.26869 -9.21284 -21.5274 6.42885 -27.7904 31.9869C-34.0535 57.5449 -18.4118 83.341 7.14626 89.6041ZM28.4482 24.9378C35.0147 27.1434 39.8252 30.4487 38.9569 36.6012C38.3275 41.1119 35.8099 43.2756 32.447 44.0493C37.1177 46.4162 39.5182 50.0446 37.3434 56.3407C34.6333 64.1521 28.0079 64.8154 19.1631 63.1677L17.1232 71.575L11.931 70.3085L13.9537 62.0094C12.6049 61.6838 11.2374 61.34 9.81424 60.9602L7.79202 69.2953L2.59981 68.0289L4.63941 59.6035C4.31217 59.5197 3.98219 59.4346 3.64984 59.3489C2.76218 59.1199 1.85763 58.8866 0.943431 58.6628L-5.81934 57.0163L-3.32539 51.2257C-3.32539 51.2257 0.500194 52.2207 0.444079 52.1485C1.92209 52.4923 2.55631 51.5724 2.80694 50.941L6.04317 37.6625C6.17045 37.6852 6.29057 37.715 6.40344 37.743C6.47067 37.7596 6.53533 37.7757 6.5974 37.7892C6.39388 37.7169 6.20899 37.6626 6.06117 37.6264L8.3648 28.1366C8.40752 27.054 8.00489 25.7004 5.91695 25.1938C5.99002 25.1397 2.14748 24.2711 2.14748 24.2711L3.46659 18.8586L10.6176 20.6136L10.6178 20.6316C11.6894 20.885 12.7978 21.1383 13.9247 21.3916L15.9471 13.0745L21.1393 14.341L19.1519 22.4957C20.5374 22.8034 21.9415 23.1291 23.3087 23.4548L25.2784 15.3542L30.4706 16.6207L28.4482 24.9378ZM12.4509 55.1237C16.6894 56.2183 25.9148 58.6009 27.3161 52.8336C28.7582 46.9166 19.7457 44.9479 15.3793 43.9941C14.8996 43.8893 14.4759 43.7968 14.1284 43.7126L11.4202 54.8622C11.7152 54.9337 12.0621 55.0233 12.4509 55.1237ZM16.2448 38.8313C19.7974 39.7498 27.4601 41.7311 28.7297 36.5044C30.022 31.1511 22.5923 29.5333 18.923 28.7342C18.4991 28.6419 18.1253 28.5605 17.821 28.4856L15.3589 38.6069C15.6119 38.6676 15.9101 38.7447 16.2448 38.8313Z" fill="url(#paint0_linear_2416_76)" fill-opacity="0.71"/>
<path d="M48.5207 52.2031C47.8602 52.2031 47.53 51.8493 47.53 51.1416V32.9691C47.53 32.2614 47.8602 31.9076 48.5207 31.9076H53.4601C57.8004 31.9076 60.7348 32.7851 62.2633 34.5401C63.8013 36.2951 64.5703 38.7907 64.5703 42.0271C64.5703 45.2634 63.8013 47.7685 62.2633 49.5423C60.7348 51.3162 57.8004 52.2031 53.4601 52.2031H48.5207ZM51.6627 48.6932H53.1912C56.1162 48.6932 58.008 48.1506 58.8666 47.0656C59.7252 45.9711 60.1545 44.2916 60.1545 42.0271C60.1545 39.7626 59.7252 38.0925 58.8666 37.0169C58.008 35.9318 56.1162 35.3893 53.1912 35.3893H51.6627V48.6932ZM66.9197 48.2403C66.9197 46.3532 67.8208 44.9851 69.6229 44.1359C71.4251 43.2867 73.482 42.8338 75.7937 42.7772V42.2111C75.7937 41.343 75.5766 40.7297 75.1426 40.3712C74.7086 40.0126 74.1047 39.8333 73.331 39.8333C72.7838 39.8333 72.2978 39.9135 71.8733 40.0739C71.4581 40.2249 71.0948 40.4042 70.7835 40.6118C70.4815 40.8099 70.2079 41.0128 69.9626 41.2203C69.5286 41.5978 69.17 41.6166 68.887 41.2769L67.7123 39.8333C67.4198 39.4748 67.4905 39.1068 67.9245 38.7294C68.2548 38.4369 68.6369 38.1821 69.0709 37.9651C69.5144 37.7481 70.0994 37.5453 70.8259 37.3565C71.5525 37.1584 72.496 37.0593 73.6565 37.0593C75.6191 37.0593 77.124 37.5122 78.1714 38.418C79.2281 39.3238 79.7565 40.6589 79.7565 42.4233V51.3539C79.7565 51.9201 79.4735 52.2031 78.9073 52.2031H76.5862C76.0767 52.2031 75.822 51.9201 75.822 51.3539V50.9293H75.7937C75.237 51.4672 74.5671 51.8635 73.7839 52.1182C73.0102 52.3635 72.2978 52.4862 71.6468 52.4862C70.0994 52.4862 68.9247 52.1088 68.1227 51.3539C67.3207 50.5897 66.9197 49.5518 66.9197 48.2403ZM71.109 48.1553C71.109 48.4856 71.175 48.7734 71.3071 49.0187C71.4392 49.2546 71.6468 49.4291 71.9299 49.5423C72.2129 49.6556 72.529 49.7122 72.8781 49.7122C73.3593 49.7122 73.8264 49.6461 74.2793 49.514C74.7322 49.3819 75.237 49.0706 75.7937 48.5799V45.5087C74.2085 45.688 73.147 45.9192 72.6092 46.2022C72.0714 46.4853 71.6845 46.7778 71.4487 47.0797C71.2222 47.3816 71.109 47.7402 71.109 48.1553ZM84.4695 52.2031C83.9034 52.2031 83.6203 51.9201 83.6203 51.3539V38.1916C83.6203 37.6255 83.9034 37.3424 84.4695 37.3424H86.7057C87.2718 37.3424 87.5549 37.6255 87.5549 38.1916V39.3521H87.6115C87.8568 38.7483 88.2672 38.2152 88.8428 37.7528C89.4184 37.2905 90.0977 37.0593 90.8808 37.0593C91.4187 37.0593 91.8621 37.1254 92.2112 37.2575C92.5415 37.3801 92.6689 37.6066 92.5934 37.9368L92.1971 39.621C92.1122 39.9985 91.8574 40.1117 91.4328 39.9607C91.1875 39.8758 90.9516 39.8333 90.7252 39.8333C89.8194 39.8333 89.0693 40.3759 88.4748 41.4609C87.8804 42.546 87.5832 44.1264 87.5832 46.2022V51.3539C87.5832 51.9201 87.3001 52.2031 86.734 52.2031H84.4695ZM94.7163 46.0324V38.1916C94.7163 37.6255 94.9994 37.3424 95.5655 37.3424H97.83C98.3961 37.3424 98.6792 37.6255 98.6792 38.1916V45.0134C98.6792 47.0703 98.8207 48.3676 99.1038 48.9055C99.3868 49.4433 99.9813 49.7122 100.887 49.7122C101.849 49.7122 102.581 49.33 103.081 48.5658C103.581 47.7921 103.831 46.1928 103.831 43.7679V38.1916C103.831 37.6255 104.114 37.3424 104.68 37.3424H106.945C107.511 37.3424 107.794 37.6255 107.794 38.1916V51.3539C107.794 51.9201 107.511 52.2031 106.945 52.2031H104.708C104.142 52.2031 103.859 51.9201 103.859 51.3539V50.5331H103.803C103.369 51.2785 102.817 51.7927 102.147 52.0757C101.477 52.3494 100.684 52.4862 99.769 52.4862C98.3254 52.4862 97.1224 52.0239 96.1599 51.0992C95.1975 50.1745 94.7163 48.4856 94.7163 46.0324ZM108.7 57.9917C108.341 57.9257 108.204 57.6804 108.289 57.2558L108.6 55.6989C108.685 55.2649 108.926 55.1234 109.322 55.2743C109.492 55.3404 109.832 55.3734 110.341 55.3734C110.936 55.3734 111.346 55.062 111.573 54.4393C111.799 53.8166 111.912 52.9485 111.912 51.8351V38.1916C111.912 37.6255 112.195 37.3424 112.762 37.3424H115.026C115.592 37.3424 115.875 37.6255 115.875 38.1916V52.2597C115.875 54.5997 115.418 56.166 114.502 56.9586C113.587 57.7511 112.365 58.1474 110.837 58.1474C109.987 58.1474 109.275 58.0955 108.7 57.9917ZM112.762 35.1628C112.195 35.1628 111.912 34.8798 111.912 34.3136V32.502C111.912 31.9359 112.195 31.6529 112.762 31.6529H115.026C115.592 31.6529 115.875 31.9359 115.875 32.502V34.3136C115.875 34.8798 115.592 35.1628 115.026 35.1628H112.762ZM119.102 40.173C118.545 40.173 118.267 39.9371 118.267 39.4654V38.05C118.267 37.5783 118.545 37.3424 119.102 37.3424H120.064V36.847C120.064 36.4224 120.164 36.0356 120.362 35.6865L121.451 33.7758C121.659 33.4173 121.904 33.238 122.187 33.238H123.178C123.744 33.238 124.027 33.5211 124.027 34.0872V37.3424H126.32C126.877 37.3424 127.155 37.5783 127.155 38.05V39.4654C127.155 39.9371 126.877 40.173 126.32 40.173H124.027V47.1929C124.027 48.1553 124.093 48.8488 124.225 49.2734C124.367 49.6886 124.726 49.8962 125.301 49.8962C125.594 49.8962 125.924 49.849 126.292 49.7546C126.66 49.6509 126.948 49.5518 127.155 49.4574C127.485 49.3065 127.702 49.415 127.806 49.7829L128.231 51.3964C128.316 51.7172 128.193 51.9531 127.863 52.1041C127.551 52.2456 127.122 52.373 126.575 52.4862C126.037 52.6088 125.495 52.6702 124.947 52.6702C123.598 52.6702 122.447 52.3918 121.494 51.8351C120.541 51.2785 120.064 50.1321 120.064 48.3959V40.173H119.102ZM130.099 44.7728C130.099 42.3856 130.693 40.5032 131.882 39.1257C133.081 37.7481 134.77 37.0593 136.949 37.0593C139.478 37.0593 141.355 37.7104 142.582 39.0125C143.809 40.3145 144.422 42.4092 144.422 45.2964C144.422 45.8625 144.158 46.1456 143.629 46.1456H134.288C134.439 47.7119 134.826 48.6979 135.449 49.1036C136.072 49.5093 136.793 49.7122 137.614 49.7122C138.397 49.7122 138.997 49.6084 139.412 49.4008C139.827 49.1932 140.176 48.9102 140.459 48.5516C140.78 48.1365 141.176 48.0704 141.648 48.3535L143.063 49.2168C143.62 49.5565 143.7 49.9622 143.304 50.434C142.728 51.1228 142.054 51.637 141.28 51.9767C140.506 52.3163 139.284 52.4862 137.614 52.4862C134.906 52.4862 132.977 51.7974 131.826 50.4198C130.675 49.0423 130.099 47.1599 130.099 44.7728ZM134.302 43.315H140.459C140.459 42.296 140.204 41.4657 139.695 40.824C139.185 40.173 138.374 39.8475 137.26 39.8475C136.374 39.8475 135.671 40.1589 135.152 40.7816C134.633 41.3949 134.35 42.2394 134.302 43.315ZM158.745 52.2031C158.084 52.2031 157.754 51.8493 157.754 51.1416V32.9691C157.754 32.2614 158.084 31.9076 158.745 31.9076H160.896C161.557 31.9076 161.887 32.2614 161.887 32.9691V38.602C161.887 39.1681 161.863 39.7343 161.816 40.3004H161.915L168.794 32.7426C169.303 32.186 169.737 31.9076 170.096 31.9076H172.94C174.044 31.9076 174.224 32.3133 173.478 33.1248L167.039 40.173L173.931 50.986C174.45 51.7974 174.271 52.2031 173.393 52.2031H170.747C170.256 52.2031 169.831 51.9248 169.473 51.3681L164.265 43.2018L161.887 45.8767V51.1416C161.887 51.8493 161.557 52.2031 160.896 52.2031H158.745ZM177.54 52.2031C176.974 52.2031 176.691 51.9201 176.691 51.3539V38.1916C176.691 37.6255 176.974 37.3424 177.54 37.3424H179.776C180.342 37.3424 180.626 37.6255 180.626 38.1916V39.3521H180.682C180.927 38.7483 181.338 38.2152 181.913 37.7528C182.489 37.2905 183.168 37.0593 183.951 37.0593C184.489 37.0593 184.933 37.1254 185.282 37.2575C185.612 37.3801 185.739 37.6066 185.664 37.9368L185.268 39.621C185.183 39.9985 184.928 40.1117 184.503 39.9607C184.258 39.8758 184.022 39.8333 183.796 39.8333C182.89 39.8333 182.14 40.3759 181.545 41.4609C180.951 42.546 180.654 44.1264 180.654 46.2022V51.3539C180.654 51.9201 180.371 52.2031 179.805 52.2031H177.54ZM186.895 38.4463C186.641 37.7104 186.796 37.3424 187.362 37.3424H189.896C190.33 37.3424 190.613 37.583 190.745 38.0642L192.882 45.9758C192.986 46.3437 193.076 46.8202 193.151 47.4052C193.236 47.9808 193.278 48.3488 193.278 48.5092H193.363C193.477 48.0091 193.557 47.6128 193.604 47.3203C193.661 47.0184 193.807 46.4381 194.043 45.5795L196.067 38.0642C196.199 37.583 196.482 37.3424 196.916 37.3424H199.449C200.006 37.3424 200.161 37.7104 199.916 38.4463L195.147 52.7976C194.59 54.4771 193.906 55.7886 193.094 56.7321C192.283 57.6756 191.155 58.1474 189.712 58.1474C188.919 58.1474 188.212 58.0814 187.589 57.9493C187.23 57.8738 187.093 57.6285 187.178 57.2133L187.49 55.6565C187.575 55.2508 187.815 55.1092 188.212 55.2319C188.504 55.3262 188.778 55.3734 189.032 55.3734C189.797 55.3734 190.377 55.0102 190.773 54.2836C191.179 53.5571 191.448 52.9344 191.58 52.4154L191.622 52.2031L186.895 38.4463ZM202.676 57.8644C202.11 57.8644 201.827 57.5813 201.827 57.0152V38.1916C201.827 37.6255 202.11 37.3424 202.676 37.3424H204.912C205.384 37.3424 205.639 37.6255 205.676 38.1916L205.733 39.0125H205.79C206.28 38.201 206.828 37.6726 207.431 37.4273C208.035 37.182 208.762 37.0593 209.611 37.0593C211.828 37.0593 213.385 37.8283 214.282 39.3663C215.187 40.8948 215.64 42.697 215.64 44.7728C215.64 46.8485 215.187 48.6554 214.282 50.1934C213.385 51.7219 211.828 52.4862 209.611 52.4862C208.762 52.4862 208.035 52.3635 207.431 52.1182C206.828 51.8729 206.28 51.3445 205.79 50.5331H205.733C205.771 50.9105 205.79 51.2879 205.79 51.6653V57.0152C205.79 57.5813 205.507 57.8644 204.941 57.8644H202.676ZM205.79 45.4096C205.79 46.6834 206.04 47.7213 206.54 48.5233C207.049 49.3159 207.658 49.7122 208.366 49.7122C209.639 49.7122 210.47 49.2687 210.856 48.3818C211.253 47.4854 211.451 46.2824 211.451 44.7728C211.451 43.2631 211.253 42.0648 210.856 41.1779C210.47 40.2815 209.639 39.8333 208.366 39.8333C207.658 39.8333 207.049 40.2343 206.54 41.0363C206.04 41.8289 205.79 42.8621 205.79 44.1359V45.4096ZM218.202 40.173C217.645 40.173 217.367 39.9371 217.367 39.4654V38.05C217.367 37.5783 217.645 37.3424 218.202 37.3424H219.164V36.847C219.164 36.4224 219.263 36.0356 219.462 35.6865L220.551 33.7758C220.759 33.4173 221.004 33.238 221.287 33.238H222.278C222.844 33.238 223.127 33.5211 223.127 34.0872V37.3424H225.42C225.977 37.3424 226.255 37.5783 226.255 38.05V39.4654C226.255 39.9371 225.977 40.173 225.42 40.173H223.127V47.1929C223.127 48.1553 223.193 48.8488 223.325 49.2734C223.467 49.6886 223.825 49.8962 224.401 49.8962C224.693 49.8962 225.024 49.849 225.392 49.7546C225.76 49.6509 226.047 49.5518 226.255 49.4574C226.585 49.3065 226.802 49.415 226.906 49.7829L227.331 51.3964C227.416 51.7172 227.293 51.9531 226.963 52.1041C226.651 52.2456 226.222 52.373 225.675 52.4862C225.137 52.6088 224.594 52.6702 224.047 52.6702C222.698 52.6702 221.547 52.3918 220.594 51.8351C219.641 51.2785 219.164 50.1321 219.164 48.3959V40.173H218.202ZM229.199 44.7728C229.199 42.3667 229.817 40.4797 231.053 39.1115C232.298 37.7434 234.148 37.0593 236.601 37.0593C239.054 37.0593 240.899 37.7434 242.135 39.1115C243.38 40.4797 244.003 42.3667 244.003 44.7728C244.003 47.1788 243.38 49.0659 242.135 50.434C240.899 51.8021 239.054 52.4862 236.601 52.4862C234.148 52.4862 232.298 51.8021 231.053 50.434C229.817 49.0659 229.199 47.1788 229.199 44.7728ZM233.388 44.7728C233.388 46.5655 233.662 47.8393 234.209 48.5941C234.766 49.3395 235.563 49.7122 236.601 49.7122C237.639 49.7122 238.431 49.3395 238.979 48.5941C239.535 47.8393 239.814 46.5655 239.814 44.7728C239.814 42.98 239.535 41.711 238.979 40.9656C238.431 40.2107 237.639 39.8333 236.601 39.8333C235.563 39.8333 234.766 40.2107 234.209 40.9656C233.662 41.711 233.388 42.98 233.388 44.7728ZM247.768 32.9691C247.749 32.2614 248.079 31.9076 248.758 31.9076H251.023C251.702 31.9076 252.033 32.2614 252.014 32.9691L251.632 45.3389C251.613 45.9522 251.306 46.2588 250.712 46.2588H249.07C248.475 46.2588 248.169 45.9522 248.15 45.3389L247.768 32.9691ZM248.815 52.2031C248.155 52.2031 247.824 51.8493 247.824 51.1416V49.2451C247.824 48.5375 248.155 48.1837 248.815 48.1837H250.966C251.627 48.1837 251.957 48.5375 251.957 49.2451V51.1416C251.957 51.8493 251.627 52.2031 250.966 52.2031H248.815Z" fill="#013260"/>
<path d="M290.373 47.2734C284.658 48.5121 277.578 50.0604 270.745 56.9352C265.093 62.6332 263.23 69.446 261.553 75.4537C260.373 79.7892 259.193 84.1246 256.522 87.1594C278.634 83.0717 295.963 65.7919 300 43.6812C297.391 45.725 293.851 46.5302 290.373 47.2734Z" fill="#013260"/>
</g>
<defs>
<linearGradient id="paint0_linear_2416_76" x1="-8.69572" y1="3.8259" x2="47.1014" y2="71.2172" gradientUnits="userSpaceOnUse">
<stop stop-color="white"/>
<stop offset="1" stop-color="white" stop-opacity="0"/>
</linearGradient>
<clipPath id="clip0_2416_76">
<path d="M0 14.6959C0 6.69175 6.48863 0.203125 14.4928 0.203125H285.507C293.511 0.203125 300 6.69175 300 14.6959V34.9857C300 63.8006 276.641 87.1596 247.826 87.1596H14.4928C6.48864 87.1596 0 80.671 0 72.6669V14.6959Z" fill="white"/>
</clipPath>
</defs>
</svg>
