<svg width="300" height="87" viewBox="0 0 300 87" fill="none" xmlns="http://www.w3.org/2000/svg">
<g clip-path="url(#clip0_2416_88)">
<path d="M0 14.5362C0 6.53208 6.48863 0.043457 14.4928 0.043457H285.507C293.511 0.043457 300 6.53208 300 14.5362V34.8261C300 63.6409 276.641 87 247.826 87H14.4928C6.48864 87 0 80.5114 0 72.5072V14.5362Z" fill="#013260"/>
<path fill-rule="evenodd" clip-rule="evenodd" d="M7.14626 89.4449C32.7043 95.7079 58.5004 80.0662 64.7634 54.5082C71.0265 28.9501 55.3848 3.15406 29.8267 -3.10898C4.26869 -9.37202 -21.5274 6.26967 -27.7904 31.8277C-34.0535 57.3857 -18.4118 83.1818 7.14626 89.4449ZM28.4482 24.7784C35.0147 26.984 39.8252 30.2893 38.9569 36.4418C38.3275 40.9525 35.8099 43.1162 32.447 43.8899C37.1177 46.2567 39.5182 49.8852 37.3434 56.1813C34.6333 63.9927 28.0079 64.656 19.1631 63.0082L17.1233 71.4156L11.931 70.1491L13.9537 61.85C12.6049 61.5243 11.2374 61.1806 9.81424 60.8007L7.79202 69.1359L2.59981 67.8694L4.63941 59.4441C4.31226 59.3603 3.98236 59.2752 3.65009 59.1895C2.76235 58.9605 1.85771 58.7272 0.94343 58.5034L-5.81933 56.8569L-3.32539 51.0663C-3.32539 51.0663 0.500195 52.0612 0.44408 51.989C1.92209 52.3328 2.55631 51.413 2.80694 50.7816L6.04317 37.5031C6.17042 37.5258 6.29053 37.5555 6.40338 37.5835C6.47063 37.6002 6.53531 37.6162 6.5974 37.6297C6.39388 37.5574 6.20899 37.5032 6.06117 37.467L8.3648 27.9772C8.40752 26.8946 8.00489 25.541 5.91695 25.0344C5.99003 24.9803 2.14748 24.1117 2.14748 24.1117L3.46659 18.6992L10.6176 20.4542L10.6178 20.4722C11.6894 20.7255 12.7978 20.9789 13.9247 21.2322L15.9471 12.9151L21.1393 14.1816L19.1519 22.3363C20.5374 22.644 21.9415 22.9697 23.3087 23.2954L25.2784 15.1948L30.4706 16.4612L28.4482 24.7784ZM12.4509 54.9643C16.6894 56.0589 25.9148 58.4415 27.3161 52.6741C28.7582 46.7572 19.7457 44.7885 15.3793 43.8347C14.8996 43.7299 14.4759 43.6374 14.1284 43.5532L11.4202 54.7028C11.7152 54.7743 12.0621 54.8639 12.4509 54.9643ZM16.2448 38.6719C19.7974 39.5904 27.4601 41.5717 28.7297 36.3449C30.022 30.9917 22.5923 29.3738 18.923 28.5748C18.4991 28.4825 18.1253 28.4011 17.821 28.3262L15.3589 38.4474C15.6119 38.5082 15.9101 38.5853 16.2448 38.6719Z" fill="url(#paint0_linear_2416_88)" fill-opacity="0.55"/>
<path d="M48.5207 52.0435C47.8602 52.0435 47.53 51.6896 47.53 50.982V32.8094C47.53 32.1018 47.8602 31.7479 48.5207 31.7479H53.4601C57.8004 31.7479 60.7348 32.6254 62.2633 34.3804C63.8013 36.1354 64.5703 38.6311 64.5703 41.8674C64.5703 45.1037 63.8013 47.6088 62.2633 49.3827C60.7348 51.1565 57.8004 52.0435 53.4601 52.0435H48.5207ZM51.6627 48.5335H53.1912C56.1162 48.5335 58.008 47.991 58.8666 46.9059C59.7252 45.8114 60.1545 44.1319 60.1545 41.8674C60.1545 39.6029 59.7252 37.9328 58.8666 36.8572C58.008 35.7721 56.1162 35.2296 53.1912 35.2296H51.6627V48.5335ZM66.9197 48.0806C66.9197 46.1935 67.8208 44.8254 69.6229 43.9762C71.4251 43.127 73.482 42.6741 75.7937 42.6175V42.0514C75.7937 41.1833 75.5766 40.57 75.1426 40.2115C74.7086 39.8529 74.1047 39.6737 73.331 39.6737C72.7838 39.6737 72.2978 39.7539 71.8733 39.9143C71.4581 40.0652 71.0948 40.2445 70.7835 40.4521C70.4815 40.6502 70.2079 40.8531 69.9626 41.0607C69.5286 41.4381 69.17 41.457 68.887 41.1173L67.7123 39.6737C67.4198 39.3151 67.4905 38.9471 67.9245 38.5697C68.2548 38.2772 68.6369 38.0225 69.0709 37.8055C69.5144 37.5884 70.0994 37.3856 70.8259 37.1969C71.5525 36.9987 72.496 36.8997 73.6565 36.8997C75.6191 36.8997 77.124 37.3526 78.1714 38.2584C79.2281 39.1642 79.7565 40.4993 79.7565 42.2637V51.1943C79.7565 51.7604 79.4735 52.0435 78.9073 52.0435H76.5862C76.0767 52.0435 75.822 51.7604 75.822 51.1943V50.7697H75.7937C75.237 51.3075 74.5671 51.7038 73.7839 51.9585C73.0102 52.2039 72.2978 52.3265 71.6468 52.3265C70.0994 52.3265 68.9247 51.9491 68.1227 51.1943C67.3207 50.43 66.9197 49.3921 66.9197 48.0806ZM71.109 47.9957C71.109 48.3259 71.175 48.6137 71.3071 48.859C71.4392 49.0949 71.6468 49.2695 71.9299 49.3827C72.2129 49.4959 72.529 49.5525 72.8781 49.5525C73.3593 49.5525 73.8264 49.4865 74.2793 49.3544C74.7322 49.2223 75.237 48.9109 75.7937 48.4203V45.3491C74.2085 45.5283 73.147 45.7595 72.6092 46.0426C72.0714 46.3256 71.6845 46.6181 71.4487 46.92C71.2222 47.222 71.109 47.5805 71.109 47.9957ZM84.4695 52.0435C83.9034 52.0435 83.6203 51.7604 83.6203 51.1943V38.0319C83.6203 37.4658 83.9034 37.1827 84.4695 37.1827H86.7057C87.2718 37.1827 87.5549 37.4658 87.5549 38.0319V39.1925H87.6115C87.8568 38.5886 88.2672 38.0555 88.8428 37.5932C89.4184 37.1308 90.0977 36.8997 90.8808 36.8997C91.4187 36.8997 91.8621 36.9657 92.2112 37.0978C92.5415 37.2205 92.6689 37.4469 92.5934 37.7772L92.1971 39.4614C92.1122 39.8388 91.8574 39.952 91.4328 39.801C91.1875 39.7161 90.9516 39.6737 90.7252 39.6737C89.8194 39.6737 89.0693 40.2162 88.4748 41.3013C87.8804 42.3863 87.5832 43.9668 87.5832 46.0426V51.1943C87.5832 51.7604 87.3001 52.0435 86.734 52.0435H84.4695ZM94.7163 45.8727V38.0319C94.7163 37.4658 94.9994 37.1827 95.5655 37.1827H97.83C98.3961 37.1827 98.6792 37.4658 98.6792 38.0319V44.8537C98.6792 46.9106 98.8207 48.208 99.1038 48.7458C99.3868 49.2836 99.9813 49.5525 100.887 49.5525C101.849 49.5525 102.581 49.1704 103.081 48.4061C103.581 47.6324 103.831 46.0331 103.831 43.6082V38.0319C103.831 37.4658 104.114 37.1827 104.68 37.1827H106.945C107.511 37.1827 107.794 37.4658 107.794 38.0319V51.1943C107.794 51.7604 107.511 52.0435 106.945 52.0435H104.708C104.142 52.0435 103.859 51.7604 103.859 51.1943V50.3734H103.803C103.369 51.1188 102.817 51.633 102.147 51.9161C101.477 52.1897 100.684 52.3265 99.769 52.3265C98.3254 52.3265 97.1224 51.8642 96.1599 50.9395C95.1975 50.0148 94.7163 48.3259 94.7163 45.8727ZM108.7 57.8321C108.341 57.766 108.204 57.5207 108.289 57.0961L108.6 55.5393C108.685 55.1052 108.926 54.9637 109.322 55.1147C109.492 55.1807 109.832 55.2137 110.341 55.2137C110.936 55.2137 111.346 54.9024 111.573 54.2796C111.799 53.6569 111.912 52.7889 111.912 51.6755V38.0319C111.912 37.4658 112.195 37.1827 112.762 37.1827H115.026C115.592 37.1827 115.875 37.4658 115.875 38.0319V52.1001C115.875 54.44 115.418 56.0063 114.502 56.7989C113.587 57.5915 112.365 57.9878 110.837 57.9878C109.987 57.9878 109.275 57.9359 108.7 57.8321ZM112.762 35.0031C112.195 35.0031 111.912 34.7201 111.912 34.154V32.3424C111.912 31.7762 112.195 31.4932 112.762 31.4932H115.026C115.592 31.4932 115.875 31.7762 115.875 32.3424V34.154C115.875 34.7201 115.592 35.0031 115.026 35.0031H112.762ZM119.102 40.0133C118.545 40.0133 118.267 39.7775 118.267 39.3057V37.8904C118.267 37.4186 118.545 37.1827 119.102 37.1827H120.064V36.6874C120.064 36.2628 120.164 35.8759 120.362 35.5268L121.451 33.6161C121.659 33.2576 121.904 33.0783 122.187 33.0783H123.178C123.744 33.0783 124.027 33.3614 124.027 33.9275V37.1827H126.32C126.877 37.1827 127.155 37.4186 127.155 37.8904V39.3057C127.155 39.7775 126.877 40.0133 126.32 40.0133H124.027V47.0333C124.027 47.9957 124.093 48.6892 124.225 49.1138C124.367 49.5289 124.726 49.7365 125.301 49.7365C125.594 49.7365 125.924 49.6893 126.292 49.595C126.66 49.4912 126.948 49.3921 127.155 49.2978C127.485 49.1468 127.702 49.2553 127.806 49.6233L128.231 51.2367C128.316 51.5575 128.193 51.7934 127.863 51.9444C127.551 52.0859 127.122 52.2133 126.575 52.3265C126.037 52.4492 125.495 52.5105 124.947 52.5105C123.598 52.5105 122.447 52.2322 121.494 51.6755C120.541 51.1188 120.064 49.9724 120.064 48.2363V40.0133H119.102ZM130.099 44.6131C130.099 42.2259 130.693 40.3436 131.882 38.966C133.081 37.5884 134.77 36.8997 136.949 36.8997C139.478 36.8997 141.355 37.5507 142.582 38.8528C143.809 40.1549 144.422 42.2495 144.422 45.1368C144.422 45.7029 144.158 45.9859 143.629 45.9859H134.288C134.439 47.5522 134.826 48.5382 135.449 48.9439C136.072 49.3497 136.793 49.5525 137.614 49.5525C138.397 49.5525 138.997 49.4487 139.412 49.2411C139.827 49.0336 140.176 48.7505 140.459 48.392C140.78 47.9768 141.176 47.9108 141.648 48.1938L143.063 49.0572C143.62 49.3968 143.7 49.8026 143.304 50.2743C142.728 50.9631 142.054 51.4773 141.28 51.817C140.506 52.1567 139.284 52.3265 137.614 52.3265C134.906 52.3265 132.977 51.6377 131.826 50.2602C130.675 48.8826 130.099 47.0002 130.099 44.6131ZM134.302 43.1553H140.459C140.459 42.1363 140.204 41.306 139.695 40.6644C139.185 40.0133 138.374 39.6878 137.26 39.6878C136.374 39.6878 135.671 39.9992 135.152 40.6219C134.633 41.2352 134.35 42.0797 134.302 43.1553ZM158.745 52.0435C158.084 52.0435 157.754 51.6896 157.754 50.982V32.8094C157.754 32.1018 158.084 31.7479 158.745 31.7479H160.896C161.557 31.7479 161.887 32.1018 161.887 32.8094V38.4423C161.887 39.0085 161.863 39.5746 161.816 40.1407H161.915L168.794 32.583C169.303 32.0263 169.737 31.7479 170.096 31.7479H172.94C174.044 31.7479 174.224 32.1537 173.478 32.9651L167.039 40.0133L173.931 50.8263C174.45 51.6377 174.271 52.0435 173.393 52.0435H170.747C170.256 52.0435 169.831 51.7651 169.473 51.2084L164.265 43.0421L161.887 45.717V50.982C161.887 51.6896 161.557 52.0435 160.896 52.0435H158.745ZM177.54 52.0435C176.974 52.0435 176.691 51.7604 176.691 51.1943V38.0319C176.691 37.4658 176.974 37.1827 177.54 37.1827H179.776C180.342 37.1827 180.626 37.4658 180.626 38.0319V39.1925H180.682C180.927 38.5886 181.338 38.0555 181.913 37.5932C182.489 37.1308 183.168 36.8997 183.951 36.8997C184.489 36.8997 184.933 36.9657 185.282 37.0978C185.612 37.2205 185.739 37.4469 185.664 37.7772L185.268 39.4614C185.183 39.8388 184.928 39.952 184.503 39.801C184.258 39.7161 184.022 39.6737 183.796 39.6737C182.89 39.6737 182.14 40.2162 181.545 41.3013C180.951 42.3863 180.654 43.9668 180.654 46.0426V51.1943C180.654 51.7604 180.371 52.0435 179.805 52.0435H177.54ZM186.895 38.2867C186.641 37.5507 186.796 37.1827 187.362 37.1827H189.896C190.33 37.1827 190.613 37.4233 190.745 37.9045L192.882 45.8161C192.986 46.1841 193.076 46.6606 193.151 47.2456C193.236 47.8211 193.278 48.1891 193.278 48.3495H193.363C193.477 47.8494 193.557 47.4531 193.604 47.1606C193.661 46.8587 193.807 46.2784 194.043 45.4198L196.067 37.9045C196.199 37.4233 196.482 37.1827 196.916 37.1827H199.449C200.006 37.1827 200.161 37.5507 199.916 38.2867L195.147 52.6379C194.59 54.3174 193.906 55.6289 193.094 56.5724C192.283 57.516 191.155 57.9878 189.712 57.9878C188.919 57.9878 188.212 57.9217 187.589 57.7896C187.23 57.7141 187.093 57.4688 187.178 57.0536L187.49 55.4968C187.575 55.0911 187.815 54.9496 188.212 55.0722C188.504 55.1666 188.778 55.2137 189.032 55.2137C189.797 55.2137 190.377 54.8505 190.773 54.124C191.179 53.3974 191.448 52.7747 191.58 52.2558L191.622 52.0435L186.895 38.2867ZM202.676 57.7047C202.11 57.7047 201.827 57.4216 201.827 56.8555V38.0319C201.827 37.4658 202.11 37.1827 202.676 37.1827H204.912C205.384 37.1827 205.639 37.4658 205.676 38.0319L205.733 38.8528H205.79C206.28 38.0413 206.828 37.513 207.431 37.2676C208.035 37.0223 208.762 36.8997 209.611 36.8997C211.828 36.8997 213.385 37.6686 214.282 39.2066C215.187 40.7351 215.64 42.5373 215.64 44.6131C215.64 46.6889 215.187 48.4958 214.282 50.0337C213.385 51.5623 211.828 52.3265 209.611 52.3265C208.762 52.3265 208.035 52.2039 207.431 51.9585C206.828 51.7132 206.28 51.1848 205.79 50.3734H205.733C205.771 50.7508 205.79 51.1282 205.79 51.5056V56.8555C205.79 57.4216 205.507 57.7047 204.941 57.7047H202.676ZM205.79 45.25C205.79 46.5238 206.04 47.5616 206.54 48.3637C207.049 49.1562 207.658 49.5525 208.366 49.5525C209.639 49.5525 210.47 49.1091 210.856 48.2221C211.253 47.3258 211.451 46.1228 211.451 44.6131C211.451 43.1034 211.253 41.9051 210.856 41.0182C210.47 40.1218 209.639 39.6737 208.366 39.6737C207.658 39.6737 207.049 40.0747 206.54 40.8767C206.04 41.6692 205.79 42.7024 205.79 43.9762V45.25ZM218.202 40.0133C217.645 40.0133 217.367 39.7775 217.367 39.3057V37.8904C217.367 37.4186 217.645 37.1827 218.202 37.1827H219.164V36.6874C219.164 36.2628 219.263 35.8759 219.462 35.5268L220.551 33.6161C220.759 33.2576 221.004 33.0783 221.287 33.0783H222.278C222.844 33.0783 223.127 33.3614 223.127 33.9275V37.1827H225.42C225.977 37.1827 226.255 37.4186 226.255 37.8904V39.3057C226.255 39.7775 225.977 40.0133 225.42 40.0133H223.127V47.0333C223.127 47.9957 223.193 48.6892 223.325 49.1138C223.467 49.5289 223.825 49.7365 224.401 49.7365C224.693 49.7365 225.024 49.6893 225.392 49.595C225.76 49.4912 226.047 49.3921 226.255 49.2978C226.585 49.1468 226.802 49.2553 226.906 49.6233L227.331 51.2367C227.416 51.5575 227.293 51.7934 226.963 51.9444C226.651 52.0859 226.222 52.2133 225.675 52.3265C225.137 52.4492 224.594 52.5105 224.047 52.5105C222.698 52.5105 221.547 52.2322 220.594 51.6755C219.641 51.1188 219.164 49.9724 219.164 48.2363V40.0133H218.202ZM229.199 44.6131C229.199 42.2071 229.817 40.32 231.053 38.9519C232.298 37.5837 234.148 36.8997 236.601 36.8997C239.054 36.8997 240.899 37.5837 242.135 38.9519C243.38 40.32 244.003 42.2071 244.003 44.6131C244.003 47.0191 243.38 48.9062 242.135 50.2743C240.899 51.6425 239.054 52.3265 236.601 52.3265C234.148 52.3265 232.298 51.6425 231.053 50.2743C229.817 48.9062 229.199 47.0191 229.199 44.6131ZM233.388 44.6131C233.388 46.4058 233.662 47.6796 234.209 48.4344C234.766 49.1798 235.563 49.5525 236.601 49.5525C237.639 49.5525 238.431 49.1798 238.979 48.4344C239.535 47.6796 239.814 46.4058 239.814 44.6131C239.814 42.8204 239.535 41.5513 238.979 40.8059C238.431 40.0511 237.639 39.6737 236.601 39.6737C235.563 39.6737 234.766 40.0511 234.209 40.8059C233.662 41.5513 233.388 42.8204 233.388 44.6131ZM247.768 32.8094C247.749 32.1018 248.079 31.7479 248.758 31.7479H251.023C251.702 31.7479 252.033 32.1018 252.014 32.8094L251.632 45.1792C251.613 45.7925 251.306 46.0992 250.712 46.0992H249.07C248.475 46.0992 248.169 45.7925 248.15 45.1792L247.768 32.8094ZM248.815 52.0435C248.155 52.0435 247.824 51.6896 247.824 50.982V49.0855C247.824 48.3778 248.155 48.024 248.815 48.024H250.966C251.627 48.024 251.957 48.3778 251.957 49.0855V50.982C251.957 51.6896 251.627 52.0435 250.966 52.0435H248.815Z" fill="#28CC8A"/>
<path d="M290.373 47.1142C284.658 48.3529 277.578 49.9013 270.745 56.776C265.093 62.474 263.23 69.2869 261.553 75.2945C260.373 79.63 259.193 83.9654 256.522 87.0002C278.634 82.9125 295.963 65.6327 300 43.522C297.391 45.5658 293.851 46.371 290.373 47.1142Z" fill="#28CC8A"/>
</g>
<defs>
<linearGradient id="paint0_linear_2416_88" x1="-8.69572" y1="3.66672" x2="47.1014" y2="71.058" gradientUnits="userSpaceOnUse">
<stop stop-color="white"/>
<stop offset="1" stop-color="white" stop-opacity="0"/>
</linearGradient>
<clipPath id="clip0_2416_88">
<path d="M0 14.5362C0 6.53208 6.48863 0.043457 14.4928 0.043457H285.507C293.511 0.043457 300 6.53208 300 14.5362V34.8261C300 63.6409 276.641 87 247.826 87H14.4928C6.48864 87 0 80.5114 0 72.5072V14.5362Z" fill="white"/>
</clipPath>
</defs>
</svg>
